<?xml version="1.0" encoding="utf-8"?>
<!-- Generator: Adobe Illustrator 24.1.1, SVG Export Plug-In . SVG Version: 6.00 Build 0)  -->
<svg version="1.1" xmlns="http://www.w3.org/2000/svg" xmlns:xlink="http://www.w3.org/1999/xlink" x="0px" y="0px"
	 viewBox="0 0 986 642" style="enable-background:new 0 0 986 642;" xml:space="preserve">
<style type="text/css">
	.st0{fill:#FFFFFF;}
	.st1{fill:#117373;}
	.st2{fill:#DF9021;}
</style>
<g id="Background_xA0_Image_1_">
	
		<image style="overflow:visible;" width="2000" height="2000" id="Background_xA0_Image" xlink:href="1FB2CEB8.jpg"  transform="matrix(1 0 0 1 -504.6282 -727.8752)">
	</image>
</g>
<g id="Group_1_1_">
	<g id="Shape_7_copy_2_">
		<g>
			<path class="st0" d="M469,1h-52l163,534h52L470,1H469z M986,1h-52L762.6,561.6L625,108h-1h-52l163,534h3h49h3L987,1H986z M343,0
				H0l15,50h343L343,0z M86,282l16,50h343l-16-50H86z"/>
		</g>
	</g>
	<g id="Shape_6_copy_4_6_">
		<g>
			<polygon class="st1" points="593,0 541,0 561,66 613,66 			"/>
		</g>
	</g>
	<g id="Shape_6_copy_4_4_">
		<g>
			<polygon class="st2" points="645,576 593,576 613,642 665,642 			"/>
		</g>
	</g>
</g>
</svg>
