<?xml version="1.0" encoding="utf-8"?>
<!-- Generator: Adobe Illustrator 24.1.1, SVG Export Plug-In . SVG Version: 6.00 Build 0)  -->
<svg version="1.2" baseProfile="tiny" id="Layer_1" xmlns="http://www.w3.org/2000/svg" xmlns:xlink="http://www.w3.org/1999/xlink"
	 x="0px" y="0px" viewBox="0 0 500 500" xml:space="preserve">
<g id="WA_Logo">
	<path fill-rule="evenodd" d="M408.1,87.9c-39.4-39.4-91.7-61.1-147.5-61.2C145.6,26.7,52,120.3,52,235.2
		c0,36.8,9.6,72.6,27.8,104.3L50.2,447.6l110.6-29c30.5,16.6,64.8,25.4,99.7,25.4h0.1c0,0,0,0,0,0c114.9,0,208.5-93.6,208.6-208.6
		C469.1,179.7,447.4,127.3,408.1,87.9z M260.5,408.7L260.5,408.7c-31.2,0-61.7-8.4-88.3-24.2l-6.3-3.8L100.3,398l17.5-64l-4.1-6.6
		c-17.4-27.6-26.5-59.5-26.5-92.2c0-95.6,77.8-173.3,173.4-173.3c46.3,0,89.8,18.1,122.6,50.8c32.7,32.8,50.7,76.3,50.7,122.6
		C433.8,331,356.1,408.7,260.5,408.7z M355.6,278.9c-5.2-2.6-30.8-15.2-35.6-17c-4.8-1.7-8.3-2.6-11.7,2.6
		c-3.5,5.2-13.5,17-16.5,20.4c-3,3.5-6.1,3.9-11.3,1.3c-5.2-2.6-22-8.1-41.9-25.9c-15.5-13.8-25.9-30.9-29-36.1
		c-3-5.2-0.3-8,2.3-10.6c2.3-2.3,5.2-6.1,7.8-9.1c2.6-3,3.5-5.2,5.2-8.7c1.7-3.5,0.9-6.5-0.4-9.1c-1.3-2.6-11.7-28.3-16.1-38.7
		c-4.2-10.2-8.5-8.8-11.7-8.9c-3-0.2-6.5-0.2-10-0.2c-3.5,0-9.1,1.3-13.9,6.5c-4.8,5.2-18.2,17.8-18.2,43.5
		c0,25.7,18.7,50.4,21.3,53.9c2.6,3.5,36.7,56.1,89,78.7c12.4,5.4,22.1,8.6,29.7,11c12.5,4,23.8,3.4,32.8,2.1
		c10-1.5,30.8-12.6,35.2-24.8c4.3-12.2,4.3-22.6,3-24.8C364.3,282.8,360.8,281.5,355.6,278.9z"/>
</g>
</svg>
