<?xml version="1.0" encoding="utf-8"?>
<!-- Generator: Adobe Illustrator 24.1.1, SVG Export Plug-In . SVG Version: 6.00 Build 0)  -->
<svg version="1.1" xmlns="http://www.w3.org/2000/svg" xmlns:xlink="http://www.w3.org/1999/xlink" x="0px" y="0px"
	 viewBox="0 0 986 642" style="enable-background:new 0 0 986 642;" xml:space="preserve">
<style type="text/css">
	.st0{fill:#117373;}
	.st1{fill:#DF9021;}
</style>
<g id="Background_xA0_Image_1_">
	
		<image style="overflow:visible;" width="2000" height="2000" id="Background_xA0_Image" xlink:href="1338E085.jpg"  transform="matrix(1 0 0 1 -504.6282 -727.8752)">
	</image>
</g>
<g id="Group_1_1_">
	<g id="Shape_7_copy_2_">
		<g>
			<path d="M739.7,635.6L580.6,114.4h39.7l142.3,469.1L938.7,7.4h39.6L785.3,635.6H739.7z M584.7,528.6L425.6,7.4h39.7l158.1,521.2
				H584.7z M106.7,325.6l-11.9-37.2h329.6l11.9,37.2H106.7z M19.7,43.6L8.6,6.4h329.7l11.2,37.2H19.7z"/>
		</g>
		<g>
			<path d="M333.5,12.8l7.3,24.5H24.5l-7.3-24.5H333.5 M969.7,13.8L780.6,629.2h-36.1L589.2,120.8h26.3l134.8,444.5l12.2,40.1
				l12.3-40.1L943.4,13.8H969.7 M460.5,13.8l154.3,508.5h-25.3L434.2,13.8H460.5 M419.7,294.8l7.8,24.5H111.3l-7.8-24.5H419.7
				 M343,0H0l15,50h343L343,0L343,0z M987,1h-53L762.6,561.6L625,108h-53l163,534h55L987,1L987,1z M470,1h-53l163,534h52L470,1
				L470,1z M429,282H86l16,50h343L429,282L429,282z"/>
		</g>
	</g>
	<g id="Shape_6_copy_4_6_">
		<g>
			<polygon class="st0" points="593,0 541,0 561,66 613,66 			"/>
		</g>
	</g>
	<g id="Shape_6_copy_4_4_">
		<g>
			<polygon class="st1" points="645,576 593,576 613,642 665,642 			"/>
		</g>
	</g>
</g>
</svg>
